# xmcd CD database file
#
# Track frame offsets:
#	182
#	10580
#	21270
#	31270
#	40590
#	49062
#	58475
#	67642
#	79085
#	89212
#	98620
#	107387
#	115622
#	124662
#	133415
#	144885
#	154760
#	164862
#	173380
#	184975
#	195345
#	205597
#	215970
#	226175
#	238220
#
# Disc length: 3291 seconds
#
# Revision: 2
# Processed by: cddbd v1.5.2PL0 Copyright (c) Steve Scherf et al.
# Submitted via: CDex 1.51
#
DISCID=4f0cd919
DTITLE=Richy Nelson - Hits
DYEAR=2003
DGENRE=Rock´n´Roll
TTITLE0=Track01
TTITLE1=Track02
TTITLE2=Track03
TTITLE3=Track04
TTITLE4=Track05
TTITLE5=Track06
TTITLE6=Track07
TTITLE7=Track08
TTITLE8=Track09
TTITLE9=Track10
TTITLE10=Track11
TTITLE11=Track12
TTITLE12=Track13
TTITLE13=Track14
TTITLE14=Track15
TTITLE15=Track16
TTITLE16=Track17
TTITLE17=Track18
TTITLE18=Track19
TTITLE19=Track20
TTITLE20=Track21
TTITLE21=Track22
TTITLE22=Track23
TTITLE23=Track24
TTITLE24=Track25
EXTD=YEAR: 2003
EXTT0=
EXTT1=
EXTT2=
EXTT3=
EXTT4=
EXTT5=
EXTT6=
EXTT7=
EXTT8=
EXTT9=
EXTT10=
EXTT11=
EXTT12=
EXTT13=
EXTT14=
EXTT15=
EXTT16=
EXTT17=
EXTT18=
EXTT19=
EXTT20=
EXTT21=
EXTT22=
EXTT23=
EXTT24=
PLAYORDER=
